<?xml version="1.0" standalone="no"?>
<!DOCTYPE svg PUBLIC "-//W3C//DTD SVG 20010904//EN"
 "http://www.w3.org/TR/2001/REC-SVG-20010904/DTD/svg10.dtd">
<svg version="1.0" xmlns="http://www.w3.org/2000/svg"
 width="1260.000000pt" height="710.000000pt" viewBox="0 0 1260.000000 710.000000"
 preserveAspectRatio="xMidYMid meet">

<g transform="translate(0.000000,710.000000) scale(0.100000,-0.100000)"
fill="#ff5722" stroke="none">
<path d="M4453 6195 c-385 -70 -699 -370 -790 -755 -17 -70 -18 -186 -18
-1890 0 -1704 1 -1820 18 -1890 87 -368 379 -660 747 -747 70 -17 186 -18
1890 -18 2025 0 1866 -5 2047 69 292 120 517 385 590 696 17 70 18 187 18
1895 0 1694 -1 1825 -17 1887 -95 370 -356 635 -727 741 l-76 22 -1805 2
c-1450 1 -1819 -1 -1877 -12z m3692 -329 c230 -69 407 -248 472 -476 17 -62
18 -148 18 -1840 0 -1692 -1 -1778 -18 -1840 -53 -187 -181 -343 -348 -423
-52 -25 -123 -52 -159 -59 -52 -10 -410 -13 -1820 -13 -1973 0 -1800 -7 -1970
77 -157 77 -285 236 -337 418 -17 62 -18 148 -18 1840 0 1997 -7 1821 76 1981
99 190 277 316 494 349 28 4 838 7 1800 6 1657 -1 1753 -3 1810 -20z"/>
<path d="M6665 5290 c-120 -60 -121 -232 -1 -289 34 -17 62 -21 143 -21 87 0
506 21 676 34 31 2 57 1 57 -3 0 -4 -78 -81 -172 -171 -95 -90 -343 -330 -550
-532 -309 -302 -380 -377 -394 -413 -53 -141 81 -277 223 -225 34 13 438 413
830 823 157 164 287 296 289 294 2 -1 -6 -151 -16 -332 -26 -441 -26 -489 3
-545 30 -60 76 -90 140 -90 63 0 118 30 146 80 21 37 21 46 21 607 0 632 0
635 -64 710 -20 22 -58 51 -88 64 l-53 24 -575 3 c-559 2 -576 2 -615 -18z"/>
<path d="M5945 3424 c-52 -26 -693 -675 -1086 -1098 -10 -11 -21 -18 -23 -15
-3 3 4 153 14 334 26 441 26 489 -2 545 -32 61 -66 83 -135 88 -48 3 -64 0
-92 -20 -19 -12 -44 -36 -55 -51 -21 -28 -21 -38 -24 -604 -3 -641 -3 -644 62
-720 20 -22 57 -51 83 -64 l48 -24 570 -3 c384 -2 582 0 606 7 47 14 104 77
113 124 8 44 -7 105 -34 139 -36 47 -77 58 -210 58 -105 0 -512 -21 -667 -34
-29 -3 -53 -1 -53 3 0 4 80 83 178 176 97 93 344 333 549 533 304 297 375 372
389 408 31 81 -1 170 -74 212 -47 26 -114 29 -157 6z"/>
</g>
</svg>
